# xmcd CD database file
#
# Track frame offsets:
#	150
#	24440
#	40987
#
# Disc length: 868 seconds
#
# Revision: 0
# Processed by: cddbd v1.5.1PL0 Copyright (c) Steve Scherf et al.
# Submitted via: CDex 1.51
#
DISCID=1b036203
DTITLE=ウラン - Birds vry to sing
DYEAR=2000
DGENRE=JPop
TTITLE0=Birds vry to sing
TTITLE1=今
TTITLE2=Birds vry to sing(English Version)
EXTD=YEAR: 2000
EXTT0=
EXTT1=
EXTT2=
PLAYORDER=
